<svg xmlns="http://www.w3.org/2000/svg" viewBox="0 0 512 512"><rect width="512" height="512" rx="115" fill="#0d1424"/><g transform="translate(115.2,162.8) scale(1.8649)"><path d="M0,0 L19,0 L19,100 L0,100 Z" fill="#eef2f8" fill-rule="nonzero"/><path d="M0,42 A33.25,42 0 0 1 66.5,42 L47.5,42 A14.25,23 0 0 0 19,42 Z" fill="#eef2f8" fill-rule="nonzero"/><path d="M47.5,42 A33.25,42 0 0 1 114,42 L95,42 A14.25,23 0 0 0 66.5,42 Z" fill="#eef2f8" fill-rule="nonzero"/><path d="M47.5,42 L66.5,42 L66.5,100 L47.5,100 Z" fill="#eef2f8" fill-rule="nonzero"/><path d="M95,42 L114,42 L114,100 L95,100 Z" fill="#eef2f8" fill-rule="nonzero"/><circle cx="139" cy="88" r="12" fill="#ff6b6b"/></g></svg>