<svg xmlns="http://www.w3.org/2000/svg" width="600" height="600" viewBox="0 0 600 600">
  <!-- Neural arborescence background — RCM brand -->
  <g id="edges" stroke="rgba(67,56,202,0.55)" stroke-width="0.8" fill="none">
    <!-- Top cluster -->
    <line x1="60"  y1="90"  x2="190" y2="35"/>
    <line x1="60"  y1="90"  x2="110" y2="210"/>
    <line x1="190" y1="35"  x2="370" y2="70"/>
    <line x1="190" y1="35"  x2="275" y2="160"/>
    <line x1="370" y1="70"  x2="540" y2="50"/>
    <line x1="370" y1="70"  x2="440" y2="190"/>
    <line x1="540" y1="50"  x2="570" y2="180"/>
    <!-- Middle cluster -->
    <line x1="110" y1="210" x2="275" y2="160"/>
    <line x1="110" y1="210" x2="40"  y2="330"/>
    <line x1="110" y1="210" x2="170" y2="350"/>
    <line x1="275" y1="160" x2="440" y2="190"/>
    <line x1="275" y1="160" x2="170" y2="350"/>
    <line x1="275" y1="160" x2="340" y2="310"/>
    <line x1="440" y1="190" x2="570" y2="180"/>
    <line x1="440" y1="190" x2="510" y2="320"/>
    <line x1="570" y1="180" x2="590" y2="340"/>
    <!-- Lower cluster -->
    <line x1="40"  y1="330" x2="170" y2="350"/>
    <line x1="40"  y1="330" x2="80"  y2="490"/>
    <line x1="170" y1="350" x2="340" y2="310"/>
    <line x1="170" y1="350" x2="80"  y2="490"/>
    <line x1="170" y1="350" x2="250" y2="470"/>
    <line x1="340" y1="310" x2="510" y2="320"/>
    <line x1="340" y1="310" x2="250" y2="470"/>
    <line x1="340" y1="310" x2="420" y2="460"/>
    <line x1="510" y1="320" x2="590" y2="340"/>
    <line x1="510" y1="320" x2="420" y2="460"/>
    <line x1="590" y1="340" x2="560" y2="500"/>
    <!-- Bottom cluster -->
    <line x1="80"  y1="490" x2="250" y2="470"/>
    <line x1="80"  y1="490" x2="130" y2="590"/>
    <line x1="250" y1="470" x2="420" y2="460"/>
    <line x1="250" y1="470" x2="130" y2="590"/>
    <line x1="250" y1="470" x2="310" y2="580"/>
    <line x1="420" y1="460" x2="560" y2="500"/>
    <line x1="420" y1="460" x2="310" y2="580"/>
    <line x1="420" y1="460" x2="480" y2="590"/>
    <line x1="560" y1="500" x2="480" y2="590"/>
  </g>
  <g id="nodes" fill="rgba(67,56,202,0.75)">
    <circle cx="60"  cy="90"  r="2.8"/>
    <circle cx="190" cy="35"  r="3.4"/>
    <circle cx="370" cy="70"  r="3.0"/>
    <circle cx="540" cy="50"  r="2.4"/>
    <circle cx="570" cy="180" r="2.4"/>
    <circle cx="110" cy="210" r="3.2"/>
    <circle cx="275" cy="160" r="3.8"/>
    <circle cx="440" cy="190" r="3.0"/>
    <circle cx="40"  cy="330" r="2.2"/>
    <circle cx="170" cy="350" r="3.6"/>
    <circle cx="340" cy="310" r="3.8"/>
    <circle cx="510" cy="320" r="3.2"/>
    <circle cx="590" cy="340" r="2.2"/>
    <circle cx="80"  cy="490" r="2.6"/>
    <circle cx="250" cy="470" r="3.4"/>
    <circle cx="420" cy="460" r="3.4"/>
    <circle cx="560" cy="500" r="2.6"/>
    <circle cx="130" cy="590" r="2.2"/>
    <circle cx="310" cy="580" r="2.8"/>
    <circle cx="480" cy="590" r="2.4"/>
  </g>
  <!-- Coral accent — nodos clave (AACC: los que más conectan) -->
  <g id="hubs" fill="rgba(249,115,22,0.85)">
    <circle cx="275" cy="160" r="2.0"/>
    <circle cx="340" cy="310" r="2.0"/>
    <circle cx="170" cy="350" r="1.8"/>
    <circle cx="250" cy="470" r="1.8"/>
  </g>
</svg>
